<svg width="24" height="25" viewBox="0 0 24 25" fill="none" xmlns="http://www.w3.org/2000/svg">
<path fill-rule="evenodd" clip-rule="evenodd" d="M3.28872 4.58785L3.36127 4.51204C5.28869 2.58444 6.54385 2.07351 7.88307 2.84362C8.2683 3.06515 8.62945 3.37523 9.12054 3.87401L10.6269 5.43603C11.4589 6.34393 11.6481 7.21478 11.3772 8.23465L11.3398 8.36967L11.2984 8.50392L11.097 9.09474C10.666 10.4197 10.846 11.1673 12.3795 12.7004C13.9742 14.2947 14.7186 14.4251 16.1457 13.9264L16.4001 13.838L16.7077 13.7381L16.8423 13.7007C17.9263 13.4115 18.842 13.6423 19.8132 14.6128L21.0269 15.7852L21.3842 16.1366C21.7803 16.5405 22.0421 16.8606 22.2355 17.1989C23.0008 18.5377 22.4893 19.7921 20.5063 21.7677L20.3177 21.9589C20.0216 22.2442 19.745 22.4486 19.3386 22.6416C18.6565 22.9655 17.8506 23.0876 16.9142 22.9573C14.6067 22.6364 11.6802 20.8158 7.97188 17.1085C7.67002 16.8067 7.3809 16.5107 7.10425 16.2205L6.56748 15.6476C1.53762 10.1828 1.09389 6.82588 3.15518 4.7205L3.28872 4.58785ZM7.90641 4.78093C7.58062 4.45973 7.34396 4.26394 7.13532 4.14396C6.67379 3.87856 6.1755 3.99074 5.25329 4.78448L4.96353 5.04334C4.91299 5.09 4.86129 5.13843 4.80838 5.18868L4.47611 5.51231L4.44617 5.54972L4.22091 5.77603C3.67656 6.33204 3.41871 7.01064 3.6409 8.17767C4.00551 10.0927 5.67442 12.6905 9.0324 16.0477C12.5313 19.5456 15.1972 21.2041 17.1208 21.4716C18.2422 21.6276 18.8142 21.356 19.3975 20.7584L19.8424 20.3095C20.051 20.0912 20.2292 19.8933 20.3797 19.7126L20.585 19.4539C21.1097 18.7551 21.1576 18.3358 20.9332 17.9433C20.8479 17.7939 20.7237 17.6302 20.5429 17.43L20.2977 17.171L20.1525 17.0258L18.6213 15.5472C18.1096 15.0753 17.7599 15.0084 17.229 15.15L17.0757 15.1941L16.4414 15.4094C14.6013 16.0037 13.2738 15.7155 11.3189 13.7612C9.29429 11.7371 9.05685 10.3854 9.73522 8.43917L9.77874 8.31411L9.89908 7.95153L9.95823 7.72043C10.0631 7.21746 9.94337 6.86677 9.40269 6.32601C9.38043 6.30375 9.35555 6.27866 9.32847 6.2512L7.90641 4.78093Z" fill="#0C1096"/>
</svg>
