<svg width="24" height="25" viewBox="0 0 24 25" fill="none" xmlns="http://www.w3.org/2000/svg">
<path d="M11.999 7.875C10.7726 7.875 9.59651 8.36217 8.72934 9.22934C7.86217 10.0965 7.375 11.2726 7.375 12.499C7.375 13.7254 7.86217 14.9015 8.72934 15.7687C9.59651 16.6358 10.7726 17.123 11.999 17.123C13.2254 17.123 14.4015 16.6358 15.2687 15.7687C16.1358 14.9015 16.623 13.7254 16.623 12.499C16.623 11.2726 16.1358 10.0965 15.2687 9.22934C14.4015 8.36217 13.2254 7.875 11.999 7.875ZM11.999 15.502C11.2023 15.502 10.4382 15.1855 9.87485 14.6221C9.31149 14.0588 8.995 13.2947 8.995 12.498C8.995 11.7013 9.31149 10.9372 9.87485 10.3739C10.4382 9.81049 11.2023 9.494 11.999 9.494C12.7957 9.494 13.5598 9.81049 14.1231 10.3739C14.6865 10.9372 15.003 11.7013 15.003 12.498C15.003 13.2947 14.6865 14.0588 14.1231 14.6221C13.5598 15.1855 12.7957 15.502 11.999 15.502Z" fill="#0C1096"/>
<path d="M16.8055 8.78491C17.4009 8.78491 17.8835 8.30227 17.8835 7.70691C17.8835 7.11154 17.4009 6.62891 16.8055 6.62891C16.2102 6.62891 15.7275 7.11154 15.7275 7.70691C15.7275 8.30227 16.2102 8.78491 16.8055 8.78491Z" fill="#0C1096"/>
<path d="M20.533 6.60991C20.3015 6.01209 19.9477 5.46919 19.4943 5.01596C19.0409 4.56274 18.4979 4.20918 17.9 3.97791C17.2003 3.71526 16.4611 3.57325 15.714 3.55791C14.751 3.51591 14.446 3.50391 12.004 3.50391C9.56195 3.50391 9.24895 3.50391 8.29395 3.55791C7.54734 3.57246 6.80871 3.71451 6.10995 3.97791C5.51189 4.20891 4.96872 4.56238 4.51529 5.01563C4.06186 5.46889 3.70818 6.01193 3.47695 6.60991C3.21426 7.30952 3.07257 8.04874 3.05795 8.79591C3.01495 9.75791 3.00195 10.0629 3.00195 12.5059C3.00195 14.9479 3.00195 15.2589 3.05795 16.2159C3.07295 16.9639 3.21395 17.7019 3.47695 18.4029C3.70883 19.0007 4.06285 19.5435 4.51639 19.9967C4.96993 20.4499 5.51302 20.8035 6.11095 21.0349C6.80839 21.3081 7.54732 21.4603 8.29595 21.4849C9.25895 21.5269 9.56395 21.5399 12.006 21.5399C14.448 21.5399 14.761 21.5399 15.716 21.4849C16.4631 21.4697 17.2022 21.328 17.902 21.0659C18.4997 20.8341 19.0426 20.4802 19.4959 20.0269C19.9493 19.5735 20.3031 19.0307 20.535 18.4329C20.798 17.7329 20.939 16.9949 20.954 16.2469C20.997 15.2849 21.01 14.9799 21.01 12.5369C21.01 10.0939 21.01 9.78391 20.954 8.82691C20.9423 8.06918 20.7999 7.31915 20.533 6.60991ZM19.315 16.1419C19.3085 16.7182 19.2033 17.2891 19.004 17.8299C18.8538 18.2188 18.6239 18.5719 18.329 18.8666C18.0342 19.1613 17.6809 19.391 17.292 19.5409C16.7572 19.7394 16.1923 19.8445 15.622 19.8519C14.672 19.8959 14.404 19.9069 11.968 19.9069C9.52995 19.9069 9.28095 19.9069 8.31295 19.8519C7.74288 19.8449 7.17828 19.7397 6.64395 19.5409C6.25364 19.3919 5.89895 19.1626 5.60284 18.8679C5.30673 18.5731 5.07579 18.2195 4.92495 17.8299C4.7284 17.295 4.62326 16.7307 4.61395 16.1609C4.57095 15.2109 4.56095 14.9429 4.56095 12.5069C4.56095 10.0699 4.56095 9.82091 4.61395 8.85191C4.62042 8.27593 4.72561 7.70533 4.92495 7.16491C5.22995 6.37591 5.85495 5.75491 6.64395 5.45291C7.17854 5.25505 7.74298 5.14987 8.31295 5.14191C9.26395 5.09891 9.53095 5.08691 11.968 5.08691C14.405 5.08691 14.655 5.08691 15.622 5.14191C16.1924 5.14877 16.7573 5.25398 17.292 5.45291C17.6809 5.60318 18.0341 5.83311 18.3289 6.12794C18.6238 6.42276 18.8537 6.77598 19.004 7.16491C19.2005 7.69986 19.3056 8.26407 19.315 8.83391C19.358 9.78491 19.369 10.0519 19.369 12.4889C19.369 14.9249 19.369 15.1869 19.326 16.1429H19.315V16.1419Z" fill="#0C1096"/>
</svg>
