<svg width="16" height="16" viewBox="0 0 16 16" fill="none" xmlns="http://www.w3.org/2000/svg">
<path d="M7.99982 4.14746C6.97785 4.14746 5.99774 4.55344 5.2751 5.27608C4.55246 5.99872 4.14648 6.97883 4.14648 8.00079C4.14648 9.02276 4.55246 10.0029 5.2751 10.7255C5.99774 11.4482 6.97785 11.8541 7.99982 11.8541C9.02179 11.8541 10.0019 11.4482 10.7245 10.7255C11.4472 10.0029 11.8532 9.02276 11.8532 8.00079C11.8532 6.97883 11.4472 5.99872 10.7245 5.27608C10.0019 4.55344 9.02179 4.14746 7.99982 4.14746ZM7.99982 10.5033C7.33589 10.5033 6.69916 10.2396 6.22969 9.77008C5.76023 9.30062 5.49648 8.66389 5.49648 7.99996C5.49648 7.33604 5.76023 6.6993 6.22969 6.22984C6.69916 5.76037 7.33589 5.49663 7.99982 5.49663C8.66374 5.49663 9.30048 5.76037 9.76994 6.22984C10.2394 6.6993 10.5032 7.33604 10.5032 7.99996C10.5032 8.66389 10.2394 9.30062 9.76994 9.77008C9.30048 10.2396 8.66374 10.5033 7.99982 10.5033Z" fill="white"/>
<path d="M12.0048 4.90409C12.5009 4.90409 12.9031 4.50189 12.9031 4.00575C12.9031 3.50962 12.5009 3.10742 12.0048 3.10742C11.5086 3.10742 11.1064 3.50962 11.1064 4.00575C11.1064 4.50189 11.5086 4.90409 12.0048 4.90409Z" fill="white"/>
<path d="M15.1111 3.09241C14.9182 2.59422 14.6234 2.14181 14.2456 1.76412C13.8677 1.38644 13.4152 1.0918 12.917 0.899074C12.3339 0.680205 11.7179 0.561858 11.0953 0.549074C10.2928 0.514074 10.0386 0.504074 8.00362 0.504074C5.96862 0.504074 5.70779 0.504074 4.91195 0.549074C4.28978 0.561205 3.67425 0.679575 3.09195 0.899074C2.59357 1.09158 2.14092 1.38613 1.76306 1.76385C1.38521 2.14156 1.09048 2.59409 0.897786 3.09241C0.678874 3.67542 0.560799 4.29144 0.54862 4.91407C0.512786 5.71574 0.501953 5.96991 0.501953 8.00574C0.501953 10.0407 0.501953 10.2999 0.54862 11.0974C0.56112 11.7207 0.67862 12.3357 0.897786 12.9199C1.09102 13.418 1.38603 13.8704 1.76398 14.2481C2.14193 14.6257 2.59451 14.9204 3.09279 15.1132C3.67398 15.3409 4.28976 15.4677 4.91362 15.4882C5.71612 15.5232 5.97029 15.5341 8.00529 15.5341C10.0403 15.5341 10.3011 15.5341 11.097 15.4882C11.7195 15.4756 12.3355 15.3575 12.9186 15.1391C13.4167 14.9459 13.8691 14.651 14.2469 14.2732C14.6247 13.8954 14.9196 13.443 15.1128 12.9449C15.332 12.3616 15.4495 11.7466 15.462 11.1232C15.4978 10.3216 15.5086 10.0674 15.5086 8.03158C15.5086 5.99574 15.5086 5.73741 15.462 4.93991C15.4523 4.30847 15.3336 3.68345 15.1111 3.09241ZM14.0961 11.0357C14.0907 11.516 14.0031 11.9918 13.837 12.4424C13.7118 12.7665 13.5202 13.0607 13.2745 13.3063C13.0288 13.5519 12.7344 13.7433 12.4103 13.8682C11.9646 14.0336 11.4939 14.1213 11.0186 14.1274C10.227 14.1641 10.0036 14.1732 7.97362 14.1732C5.94195 14.1732 5.73445 14.1732 4.92779 14.1274C4.45273 14.1216 3.98222 14.0339 3.53695 13.8682C3.21169 13.7441 2.91612 13.553 2.66936 13.3074C2.4226 13.0618 2.23015 12.7671 2.10445 12.4424C1.94066 11.9966 1.85305 11.5264 1.84529 11.0516C1.80945 10.2599 1.80112 10.0366 1.80112 8.00658C1.80112 5.97574 1.80112 5.76824 1.84529 4.96074C1.85067 4.48076 1.93833 4.00526 2.10445 3.55491C2.35862 2.89741 2.87945 2.37991 3.53695 2.12824C3.98244 1.96336 4.45281 1.87571 4.92779 1.86907C5.72029 1.83324 5.94279 1.82324 7.97362 1.82324C10.0045 1.82324 10.2128 1.82324 11.0186 1.86907C11.494 1.87479 11.9648 1.96247 12.4103 2.12824C12.7344 2.25347 13.0287 2.44508 13.2744 2.69077C13.5201 2.93646 13.7117 3.2308 13.837 3.55491C14.0007 4.0007 14.0884 4.47087 14.0961 4.94574C14.132 5.73824 14.1411 5.96074 14.1411 7.99157C14.1411 10.0216 14.1411 10.2399 14.1053 11.0366H14.0961V11.0357Z" fill="white"/>
</svg>
