<svg width="24" height="25" viewBox="0 0 24 25" fill="none" xmlns="http://www.w3.org/2000/svg">
<path fill-rule="evenodd" clip-rule="evenodd" d="M12.251 9C11.286 9 10.501 9.785 10.501 10.751C10.501 11.716 11.286 12.5 12.251 12.5C13.216 12.5 14.001 11.716 14.001 10.751C14.001 9.785 13.216 9 12.251 9ZM12.251 14C10.459 14 9.00098 12.543 9.00098 10.751C9.00098 8.958 10.459 7.5 12.251 7.5C14.043 7.5 15.501 8.958 15.501 10.751C15.501 12.543 14.043 14 12.251 14Z" fill="#0C1096"/>
<mask id="mask0_1989_29285" style="mask-type:alpha" maskUnits="userSpaceOnUse" x="4" y="2" width="17" height="20">
<path fill-rule="evenodd" clip-rule="evenodd" d="M4 2.5H20.4995V22H4V2.5Z" fill="white"/>
</mask>
<g mask="url(#mask0_1989_29285)">
<path fill-rule="evenodd" clip-rule="evenodd" d="M12.249 4C8.52702 4 5.49902 7.057 5.49902 10.813C5.49902 15.592 11.123 20.248 12.249 20.496C13.375 20.247 18.999 15.591 18.999 10.813C18.999 7.057 15.971 4 12.249 4ZM12.249 22C10.455 22 3.99902 16.448 3.99902 10.813C3.99902 6.229 7.70002 2.5 12.249 2.5C16.798 2.5 20.499 6.229 20.499 10.813C20.499 16.448 14.043 22 12.249 22Z" fill="#0C1096"/>
</g>
</svg>
