<svg width="24" height="25" viewBox="0 0 24 25" fill="none" xmlns="http://www.w3.org/2000/svg">
<path fill-rule="evenodd" clip-rule="evenodd" d="M11.7767 13.9655C11.1077 13.9655 10.4407 13.7445 9.88273 13.3025L5.39773 9.68648C5.07473 9.42648 5.02473 8.95348 5.28373 8.63148C5.54473 8.31048 6.01673 8.25948 6.33873 8.51848L10.8197 12.1305C11.3827 12.5765 12.1757 12.5765 12.7427 12.1265L17.1787 8.52048C17.5007 8.25748 17.9727 8.30748 18.2347 8.62948C18.4957 8.95048 18.4467 9.42248 18.1257 9.68448L13.6817 13.2965C13.1197 13.7425 12.4477 13.9655 11.7767 13.9655Z" fill="#0C1096"/>
<mask id="mask0_1989_29309" style="mask-type:alpha" maskUnits="userSpaceOnUse" x="1" y="2" width="22" height="20">
<path fill-rule="evenodd" clip-rule="evenodd" d="M1 2.5H22.4999V22H1V2.5Z" fill="white"/>
</mask>
<g mask="url(#mask0_1989_29309)">
<path fill-rule="evenodd" clip-rule="evenodd" d="M6.839 20.5H16.659C16.661 20.498 16.669 20.5 16.675 20.5C17.816 20.5 18.828 20.092 19.604 19.317C20.505 18.42 21 17.131 21 15.688V8.82C21 6.027 19.174 4 16.659 4H6.841C4.326 4 2.5 6.027 2.5 8.82V15.688C2.5 17.131 2.996 18.42 3.896 19.317C4.672 20.092 5.685 20.5 6.825 20.5H6.839ZM6.822 22C5.279 22 3.901 21.44 2.837 20.38C1.652 19.198 1 17.532 1 15.688V8.82C1 5.217 3.511 2.5 6.841 2.5H16.659C19.989 2.5 22.5 5.217 22.5 8.82V15.688C22.5 17.532 21.848 19.198 20.663 20.38C19.6 21.439 18.221 22 16.675 22H16.659H6.841H6.822Z" fill="#0C1096"/>
</g>
</svg>
