<svg width="36" height="36" viewBox="0 0 36 36" fill="none" xmlns="http://www.w3.org/2000/svg">
<path d="M0 4C0 1.79086 1.79086 0 4 0H32C34.2091 0 36 1.79086 36 4V32C36 34.2091 34.2091 36 32 36H4C1.79086 36 0 34.2091 0 32V4Z" fill="white"/>
<path d="M14.642 24.2749C14.4202 24.0531 14.4 23.7058 14.5815 23.4612L14.642 23.3911L20.0332 17.9997L14.642 12.6083C14.4202 12.3864 14.4 12.0392 14.5815 11.7945L14.642 11.7244C14.8639 11.5025 15.2112 11.4823 15.4558 11.6639L15.5259 11.7244L21.3593 17.5577C21.5811 17.7796 21.6013 18.1268 21.4198 18.3715L21.3593 18.4416L15.5259 24.2749C15.2818 24.519 14.8861 24.519 14.642 24.2749Z" fill="#0C1096"/>
</svg>
