<svg width="36" height="36" viewBox="0 0 36 36" fill="none" xmlns="http://www.w3.org/2000/svg">
<path d="M0 4C0 1.79086 1.79086 0 4 0H32C34.2091 0 36 1.79086 36 4V32C36 34.2091 34.2091 36 32 36H4C1.79086 36 0 34.2091 0 32V4Z" fill="white"/>
<path d="M21.358 11.7251C21.5798 11.9469 21.6 12.2942 21.4185 12.5388L21.358 12.6089L15.9668 18.0003L21.358 23.3917C21.5798 23.6136 21.6 23.9608 21.4185 24.2055L21.358 24.2756C21.1361 24.4975 20.7888 24.5177 20.5442 24.3361L20.4741 24.2756L14.6407 18.4423C14.4189 18.2204 14.3987 17.8732 14.5802 17.6285L14.6407 17.5584L20.4741 11.7251C20.7182 11.481 21.1139 11.481 21.358 11.7251Z" fill="#D0D1FB"/>
</svg>
