<svg width="56" height="56" viewBox="0 0 56 56" fill="none" xmlns="http://www.w3.org/2000/svg">
<path d="M0 8C0 3.58172 3.58172 0 8 0H48C52.4183 0 56 3.58172 56 8V48C56 52.4183 52.4183 56 48 56H8C3.58172 56 0 52.4183 0 48V8Z" fill="white"/>
<path d="M23.2983 36.7857C22.9876 36.4751 22.9594 35.989 23.2136 35.6464L23.2983 35.5483L30.8458 28.0003L23.2983 20.4524C22.9876 20.1417 22.9594 19.6556 23.2136 19.3131L23.2983 19.2149C23.6089 18.9043 24.095 18.8761 24.4376 19.1302L24.5357 19.2149L32.7024 27.3816C33.013 27.6923 33.0413 28.1784 32.7871 28.5209L32.7024 28.619L24.5357 36.7857C24.194 37.1274 23.64 37.1274 23.2983 36.7857Z" fill="#0C1096"/>
</svg>
