<svg width="56" height="56" viewBox="0 0 56 56" fill="none" xmlns="http://www.w3.org/2000/svg">
<path d="M0 8C0 3.58172 3.58172 0 8 0H48C52.4183 0 56 3.58172 56 8V48C56 52.4183 52.4183 56 48 56H8C3.58172 56 0 52.4183 0 48V8Z" fill="white"/>
<path d="M32.7017 19.2143C33.0124 19.5249 33.0406 20.011 32.7864 20.3536L32.7017 20.4517L25.1542 27.9997L32.7017 35.5476C33.0124 35.8583 33.0406 36.3444 32.7864 36.6869L32.7017 36.7851C32.3911 37.0957 31.905 37.1239 31.5624 36.8698L31.4643 36.7851L23.2976 28.6184C22.987 28.3077 22.9587 27.8216 23.2129 27.4791L23.2976 27.381L31.4643 19.2143C31.806 18.8726 32.36 18.8726 32.7017 19.2143Z" fill="#0C1096"/>
</svg>
