<svg width="24" height="25" viewBox="0 0 24 25" fill="none" xmlns="http://www.w3.org/2000/svg">
<path d="M19.633 8.49753C19.646 8.67253 19.646 8.84653 19.646 9.02053C19.646 14.3455 15.593 20.4815 8.186 20.4815C5.904 20.4815 3.784 19.8205 2 18.6725C2.324 18.7095 2.636 18.7225 2.973 18.7225C4.78599 18.7269 6.54765 18.1207 7.974 17.0015C7.13342 16.9863 6.31858 16.709 5.64324 16.2083C4.9679 15.7075 4.46578 15.0084 4.207 14.2085C4.456 14.2455 4.706 14.2705 4.968 14.2705C5.329 14.2705 5.692 14.2205 6.029 14.1335C5.11676 13.9493 4.29647 13.4549 3.70762 12.7342C3.11876 12.0136 2.79769 11.1112 2.799 10.1805V10.1305C3.336 10.4295 3.959 10.6165 4.619 10.6415C4.06609 10.2741 3.61272 9.77555 3.29934 9.19032C2.98596 8.60509 2.82231 7.95139 2.823 7.28753C2.823 6.53953 3.022 5.85353 3.371 5.25553C4.38314 6.50055 5.6455 7.51909 7.07634 8.24519C8.50717 8.97129 10.0746 9.38875 11.677 9.47053C11.615 9.17053 11.577 8.85953 11.577 8.54753C11.5767 8.01849 11.6807 7.49459 11.8831 7.00577C12.0854 6.51695 12.3821 6.07281 12.7562 5.69872C13.1303 5.32463 13.5744 5.02794 14.0632 4.82561C14.5521 4.62328 15.076 4.51927 15.605 4.51953C16.765 4.51953 17.812 5.00553 18.548 5.79153C19.4498 5.61715 20.3145 5.28795 21.104 4.81853C20.8034 5.74935 20.1738 6.53864 19.333 7.03853C20.1328 6.94731 20.9144 6.73698 21.652 6.41453C21.1011 7.21763 20.4185 7.92188 19.633 8.49753Z" fill="#0C1096"/>
</svg>
