<svg width="18" height="14" viewBox="0 0 18 14" fill="none" xmlns="http://www.w3.org/2000/svg">
<path d="M15.3612 3.66417C15.372 3.81 15.372 3.955 15.372 4.1C15.372 8.5375 11.9945 13.6508 5.82199 13.6508C3.92033 13.6508 2.15366 13.1 0.666992 12.1433C0.936992 12.1742 1.19699 12.185 1.47783 12.185C2.98865 12.1886 4.4567 11.6834 5.64533 10.7508C4.94484 10.7382 4.26581 10.507 3.70302 10.0898C3.14024 9.67251 2.72181 9.08991 2.50616 8.42333C2.71366 8.45417 2.92199 8.475 3.14033 8.475C3.44116 8.475 3.74366 8.43333 4.02449 8.36083C3.26429 8.20734 2.58072 7.79529 2.09001 7.19474C1.5993 6.59418 1.33174 5.84221 1.33283 5.06667V5.025C1.78033 5.27417 2.29949 5.43 2.84949 5.45083C2.38873 5.14465 2.01093 4.72919 1.74978 4.24149C1.48863 3.7538 1.35225 3.20905 1.35283 2.65583C1.35283 2.0325 1.51866 1.46083 1.80949 0.962501C2.65294 2.00002 3.70491 2.8488 4.89727 3.45388C6.08963 4.05896 7.39579 4.40685 8.73116 4.475C8.67949 4.225 8.64783 3.96583 8.64783 3.70583C8.64761 3.26497 8.73428 2.82838 8.90289 2.42103C9.0715 2.01369 9.31874 1.64356 9.63048 1.33182C9.94222 1.02008 10.3123 0.772843 10.7197 0.604232C11.127 0.435622 11.5636 0.348948 12.0045 0.349167C12.9712 0.349167 13.8437 0.754167 14.457 1.40917C15.2085 1.26385 15.9291 0.989519 16.587 0.598334C16.3365 1.37401 15.8118 2.03175 15.1112 2.44833C15.7776 2.37232 16.429 2.19704 17.0437 1.92833C16.5846 2.59758 16.0158 3.18445 15.3612 3.66417Z" fill="white"/>
</svg>
